<mxfile host="app.diagrams.net" modified="2023-07-19T19:14:57.994Z" agent="Mozilla/5.0 (Windows NT 10.0; Win64; x64) AppleWebKit/537.36 (KHTML, like Gecko) Chrome/114.0.0.0 Safari/537.36" etag="jUXF5HpoUSyewDBDK17N" version="21.6.3" type="github">
  <diagram name="Página-1" id="V9i8mn_TZ9NWv9EqF-xY">
    <mxGraphModel dx="1120" dy="482" grid="1" gridSize="10" guides="1" tooltips="1" connect="1" arrows="1" fold="1" page="1" pageScale="1" pageWidth="827" pageHeight="1169" math="0" shadow="0">
      <root>
        <mxCell id="0" />
        <mxCell id="1" parent="0" />
        <mxCell id="aXVy0-sg0bezHS9OPoUj-3" value="MONITOREO" style="rounded=1;whiteSpace=wrap;html=1;labelBackgroundColor=none;fillColor=#F694C1;strokeColor=#AF45ED;fontColor=#095C86;" vertex="1" parent="1">
          <mxGeometry x="360" y="40" width="120" height="60" as="geometry" />
        </mxCell>
        <mxCell id="aXVy0-sg0bezHS9OPoUj-4" value="" style="endArrow=classic;html=1;rounded=0;exitX=0.5;exitY=1;exitDx=0;exitDy=0;labelBackgroundColor=none;strokeColor=#60E696;fontColor=default;" edge="1" parent="1" source="aXVy0-sg0bezHS9OPoUj-3">
          <mxGeometry width="50" height="50" relative="1" as="geometry">
            <mxPoint x="419.5" y="150" as="sourcePoint" />
            <mxPoint x="420" y="170" as="targetPoint" />
          </mxGeometry>
        </mxCell>
        <mxCell id="aXVy0-sg0bezHS9OPoUj-8" value="" style="endArrow=classic;html=1;rounded=0;labelBackgroundColor=none;strokeColor=#60E696;fontColor=default;" edge="1" parent="1">
          <mxGeometry width="50" height="50" relative="1" as="geometry">
            <mxPoint x="360" y="210" as="sourcePoint" />
            <mxPoint x="480" y="210" as="targetPoint" />
          </mxGeometry>
        </mxCell>
        <mxCell id="aXVy0-sg0bezHS9OPoUj-9" value="Temperatura&amp;nbsp;" style="text;html=1;strokeColor=none;fillColor=none;align=center;verticalAlign=middle;whiteSpace=wrap;rounded=0;labelBackgroundColor=none;fontColor=#095C86;" vertex="1" parent="1">
          <mxGeometry x="350" y="170" width="140" height="30" as="geometry" />
        </mxCell>
        <mxCell id="aXVy0-sg0bezHS9OPoUj-12" value="VERIFICACION ON" style="rounded=0;whiteSpace=wrap;html=1;labelBackgroundColor=none;fillColor=#F694C1;strokeColor=#AF45ED;fontColor=#095C86;" vertex="1" parent="1">
          <mxGeometry x="490" y="180" width="120" height="60" as="geometry" />
        </mxCell>
        <mxCell id="aXVy0-sg0bezHS9OPoUj-24" style="edgeStyle=orthogonalEdgeStyle;rounded=0;orthogonalLoop=1;jettySize=auto;html=1;labelBackgroundColor=none;strokeColor=#60E696;fontColor=default;" edge="1" parent="1" source="aXVy0-sg0bezHS9OPoUj-13">
          <mxGeometry relative="1" as="geometry">
            <mxPoint x="300" y="320" as="targetPoint" />
          </mxGeometry>
        </mxCell>
        <mxCell id="aXVy0-sg0bezHS9OPoUj-13" value="CONTROL" style="rounded=0;whiteSpace=wrap;html=1;labelBackgroundColor=none;fillColor=#F694C1;strokeColor=#AF45ED;fontColor=#095C86;" vertex="1" parent="1">
          <mxGeometry x="240" y="180" width="120" height="60" as="geometry" />
        </mxCell>
        <mxCell id="aXVy0-sg0bezHS9OPoUj-15" value="" style="endArrow=none;dashed=1;html=1;rounded=0;labelBackgroundColor=none;strokeColor=#60E696;fontColor=default;" edge="1" parent="1">
          <mxGeometry width="50" height="50" relative="1" as="geometry">
            <mxPoint x="360" y="280" as="sourcePoint" />
            <mxPoint x="540" y="280" as="targetPoint" />
          </mxGeometry>
        </mxCell>
        <mxCell id="aXVy0-sg0bezHS9OPoUj-17" value="Verificación OFF" style="text;html=1;strokeColor=none;fillColor=none;align=center;verticalAlign=middle;whiteSpace=wrap;rounded=0;labelBackgroundColor=none;fontColor=#095C86;" vertex="1" parent="1">
          <mxGeometry x="360" y="240" width="120" height="30" as="geometry" />
        </mxCell>
        <mxCell id="aXVy0-sg0bezHS9OPoUj-19" value="" style="endArrow=none;dashed=1;html=1;rounded=0;labelBackgroundColor=none;strokeColor=#60E696;fontColor=default;" edge="1" parent="1">
          <mxGeometry width="50" height="50" relative="1" as="geometry">
            <mxPoint x="540" y="280" as="sourcePoint" />
            <mxPoint x="540" y="250" as="targetPoint" />
          </mxGeometry>
        </mxCell>
        <mxCell id="aXVy0-sg0bezHS9OPoUj-25" value="FIN" style="rounded=1;whiteSpace=wrap;html=1;labelBackgroundColor=none;fillColor=#F694C1;strokeColor=#AF45ED;fontColor=#095C86;" vertex="1" parent="1">
          <mxGeometry x="240" y="320" width="120" height="60" as="geometry" />
        </mxCell>
      </root>
    </mxGraphModel>
  </diagram>
</mxfile>
